<svg width="13" height="13" viewBox="0 0 13 13" fill="none" xmlns="http://www.w3.org/2000/svg">
<path d="M11.0781 4.91763C11.0781 4.91763 10.7387 9.12701 10.5418 10.9001C10.4481 11.747 9.92494 12.2433 9.06806 12.2589C7.43744 12.2883 5.80494 12.2901 4.17494 12.2558C3.35056 12.2389 2.83619 11.7364 2.74431 10.9045C2.54619 9.11575 2.20869 4.91763 2.20869 4.91763M11.9426 2.89983H1.34387M9.90037 2.89982C9.40975 2.89982 8.98725 2.55294 8.891 2.07232L8.73912 1.31232C8.64537 0.961693 8.32787 0.719193 7.966 0.719193H5.32037C4.9585 0.719193 4.641 0.961693 4.54725 1.31232L4.39537 2.07232C4.29912 2.55294 3.87662 2.89982 3.386 2.89982" stroke="#8F959E" stroke-width="1.3" stroke-linecap="round" stroke-linejoin="round"/>
</svg>
